# xmcd
#
# Track frame offsets:
#	150
#	12727
#	23247
#	34751
#	46474
#	57323
#	68450
#	77903
#	86619
#	97179
#	107170
#	119165
#	129681
#	141034
#	150900
#	161929
#	172030
#	184762
#	196743
#
# Disc length: 2759 seconds
#
# Revision: 0
# Processed by: cddbd v1.5.1PL0 Copyright (c) Steve Scherf et al.
# Submitted via: audiograbber 1.82.01
#
DISCID=0c0ac513
DTITLE=Various Artist - Collectors Choice
DYEAR=1996
DGENRE=Blues
TTITLE0=Professor Longhair - Go To The Mardi Gras
TTITLE1=Professor Longhair - Every Day, Every Night
TTITLE2=Professor Longhair - If Only I Knew
TTITLE3=Professor Longhair - Cuttin' Out
TTITLE4=Professor Longhair - Big Chief
TTITLE5=Professor Longhair - Big Chief (Alternate Take)
TTITLE6=Professor Longhair - Everyone's Blowing
TTITLE7=Professor Longhair - Everyone's Blowing (Alt Take)
TTITLE8=Professor Longhair - I Believe I'm Gonna Leave
TTITLE9=Professor Longhair - A Whole Lot Of Twisting
TTITLE10=Al Johnson - Carnival Time
TTITLE11=Irma Thomas - Don't Mess With My Man
TTITLE12=Joe Jones - You Talk Too Much
TTITLE13=Martha Carter - I Don't Talk Too Much
TTITLE14=Tommy Ridgley - Double Eyed Whammy
TTITLE15=Eddie Bo - Check Mr. Popeye
TTITLE16=Bobby Mitchell  - Mama Don't Allow
TTITLE17=Lenny Capello - Genevieve
TTITLE18=The Velvetiers - Feelin Right On A Saturday Night
EXTD=
EXTT0=
EXTT1=
EXTT2=
EXTT3=
EXTT4=
EXTT5=
EXTT6=
EXTT7=
EXTT8=
EXTT9=
EXTT10=
EXTT11=
EXTT12=
EXTT13=
EXTT14=
EXTT15=
EXTT16=
EXTT17=
EXTT18=
PLAYORDER=
